<?xml version="1.0" standalone="no"?><!DOCTYPE svg PUBLIC "-//W3C//DTD SVG 1.1//EN" "http://www.w3.org/Graphics/SVG/1.1/DTD/svg11.dtd"><svg t="1620743075520" class="icon" viewBox="0 0 1024 1024" version="1.1" xmlns="http://www.w3.org/2000/svg" p-id="5353" xmlns:xlink="http://www.w3.org/1999/xlink" width="200" height="200"><defs><style type="text/css"></style></defs><path d="M987.648 841.728h-256c-22.016 0-36.352 14.336-36.352 36.352s14.848 36.352 36.352 36.352h256c22.016 0 36.352-14.336 36.352-36.352 0-14.336-14.848-36.352-36.352-36.352z m0-236.544h-256c-22.016 0-36.352 14.336-36.352 36.352s14.848 36.352 36.352 36.352h256c22.016 0 36.352-14.336 36.352-36.352 0-14.336-14.848-36.352-36.352-36.352z m0-196.608h-256c-22.016 0-36.352 14.336-36.352 36.352s14.848 36.352 36.352 36.352h256c22.016 0 36.352-14.336 36.352-36.352s-14.848-36.352-36.352-36.352zM570.368 1024c-22.016 0-36.352-14.336-36.352-36.352V386.56c0-7.168 0-22.016 7.168-29.184l248.832-276.992h-665.6l248.832 276.992c7.168 7.168 7.168 14.336 7.168 29.184v374.784l58.368 51.2c14.848 14.336 22.016 36.352 7.168 51.2-14.848 14.336-36.352 22.016-51.2 7.168l-73.216-58.368c-7.168-7.168-14.848-14.336-14.848-29.184V401.408l-291.84-335.872C0 51.2 0 36.352 0 22.016 7.168 7.168 22.016 0 36.352 0h841.216c14.848 0 29.184 7.168 36.352 22.016 7.168 14.336 0 29.184-7.168 43.52L614.4 401.408v586.24c0 22.016-22.016 36.352-44.032 36.352z" p-id="5354"></path></svg>