<?xml version="1.0" standalone="no"?><!DOCTYPE svg PUBLIC "-//W3C//DTD SVG 1.1//EN" "http://www.w3.org/Graphics/SVG/1.1/DTD/svg11.dtd"><svg t="1620651077005" class="icon" viewBox="0 0 1024 1024" version="1.1" xmlns="http://www.w3.org/2000/svg" p-id="6339" xmlns:xlink="http://www.w3.org/1999/xlink" width="200" height="200"><defs><style type="text/css"></style></defs><path d="M859.648 194.048c-57.856-93.696-152.576-161.28-259.072-184.32C571.392 3.072 541.696 0 512.512 0v7.168V0v1.024V0h-0.512C400.384 0.512 292.352 46.592 216.064 126.976 138.24 208.896 97.792 320.512 104.448 432.64c3.584 60.416 20.992 119.808 50.176 173.056 27.648 50.176 66.56 94.208 115.712 131.584 19.456 14.848 40.96 27.648 64 38.4l143.872 229.376c7.68 11.776 19.968 18.944 33.792 18.944 13.824 0 26.624-7.168 33.792-18.944l143.36-229.376c100.864-48.128 180.736-141.824 213.504-250.88 33.792-109.568 17.408-232.96-43.008-330.752z m-87.04 415.744c-2.048 2.56-4.096 4.608-5.632 7.168-8.192 9.728-16.896 19.456-26.624 28.672-7.68 7.68-16.384 15.36-25.6 22.528-0.512 0.512-1.536 1.024-2.56 2.048-1.536 1.024-3.072 2.048-3.584 2.56-2.56 2.048-5.12 3.584-7.68 5.632-5.12 3.584-10.752 7.168-16.896 11.264-10.752 6.656-22.528 12.8-34.816 18.432-9.216 4.608-16.384 10.752-21.504 18.944L512 910.336 397.312 727.04c-3.584-5.632-8.192-12.8-16.384-16.896-11.776-5.12-23.552-11.264-35.328-17.92-10.752-6.144-22.016-13.824-32.768-21.504l-2.56-2.048c-2.56-2.048-4.608-3.584-7.168-5.632-4.608-4.096-9.728-8.192-15.36-13.312-9.216-8.704-18.432-17.92-27.136-28.16-3.072-3.584-6.144-7.168-8.704-10.752-0.512-0.512-1.024-1.536-2.048-2.56-1.024-1.536-2.048-3.072-2.56-3.584l-6.144-9.216c-7.168-10.24-13.824-21.504-20.48-33.792-2.56-5.12-5.632-10.752-8.704-16.896-1.536-3.072-2.56-5.632-4.096-8.704l-1.536-4.096c-9.728-24.576-16.896-50.688-20.992-77.824v-1.536c-3.584-29.696-3.584-59.392 0-89.088 3.584-23.04 9.216-46.08 16.896-68.608 1.536-4.608 3.584-9.728 5.632-15.36l1.536-3.072 4.608-9.216c5.12-10.752 10.752-21.504 17.408-32.256 5.12-8.704 11.264-17.92 17.92-26.624l1.024-1.024c1.024-1.536 2.56-3.072 3.072-4.096 2.048-2.048 3.584-4.608 5.632-6.656 3.584-4.608 8.192-9.216 12.8-14.336 8.192-8.704 16.896-16.896 26.112-25.088 3.584-3.072 7.68-6.656 12.288-10.24l2.56-2.048c2.56-2.048 5.632-4.096 8.192-6.144 10.752-7.68 22.528-14.848 34.816-21.504 5.632-3.072 11.776-6.144 18.432-9.216 3.072-1.536 5.632-2.56 8.704-4.096 2.048-0.512 3.584-1.536 5.632-2.048 24.576-9.728 51.2-16.384 78.336-20.48 14.336-1.536 29.184-2.56 44.032-2.56v-6.144 6.144c14.848 0 29.696 1.024 44.032 2.56 23.552 3.584 46.592 9.216 68.608 16.896 4.608 1.536 9.728 3.584 15.36 6.144l3.072 1.536 9.216 4.608c10.752 5.12 21.504 10.752 32.256 17.408 8.704 5.12 17.92 11.264 26.624 17.92l1.024 1.024c1.536 1.024 3.072 2.56 4.096 3.072 2.048 2.048 4.608 3.584 6.656 5.632 4.608 3.584 9.216 7.68 14.336 12.8 8.192 8.192 16.896 16.896 25.088 26.112 3.072 3.584 6.656 7.68 10.24 12.288l2.048 2.56c2.048 2.56 4.096 5.632 6.144 8.192 7.68 10.752 14.848 22.528 21.504 34.816 3.072 5.632 6.144 11.776 9.216 18.432 1.536 3.072 2.56 5.632 4.096 8.704 0.512 2.048 1.536 3.584 2.048 5.632 9.728 24.576 16.384 51.2 20.48 78.336 3.584 29.184 3.584 58.88 0 88.576-3.584 25.088-10.24 50.176-18.944 73.728-1.024 3.072-2.048 6.144-3.584 8.704l-1.024 2.56c-2.56 5.632-5.632 11.776-8.704 18.432-5.632 11.264-12.288 22.528-19.968 33.792-3.072 4.608-6.656 9.728-10.752 15.36 0.512 2.56-0.512 3.584-1.536 5.12zM512 7.68V1.536v6.144z" p-id="6340"></path><path d="M395.264 284.16h72.192v282.624H395.264V284.16zM613.376 284.16h-99.84v282.624h72.192V473.6h21.504c31.744 1.024 58.88-7.68 80.384-25.6 22.016-17.92 32.768-41.984 32.768-71.68 0.512-41.984-17.92-92.16-107.008-92.16z m-27.136 59.392h17.408c37.376 0 41.984 18.944 41.984 34.816 0 25.088-13.312 35.84-42.496 35.84h-16.896V343.552z" p-id="6341"></path></svg>