<?xml version="1.0" standalone="no"?><!DOCTYPE svg PUBLIC "-//W3C//DTD SVG 1.1//EN" "http://www.w3.org/Graphics/SVG/1.1/DTD/svg11.dtd"><svg t="1620651148031" class="icon" viewBox="0 0 1228 1024" version="1.1" xmlns="http://www.w3.org/2000/svg" p-id="12047" xmlns:xlink="http://www.w3.org/1999/xlink" width="239.84375" height="200"><defs><style type="text/css"></style></defs><path d="M1203.2 559.9744l-253.3376-0.3584a25.6 25.6 0 0 1-31.3344-18.1248l-38.1952-121.4464-119.6544 561.664s-2.4064 29.6448-18.432 29.6448c-15.9744 0-43.008 0.4608-43.008 0.4608a24.7808 24.7808 0 0 1-30.4128-17.5616L520.3968 261.7344 407.8592 790.9376c-3.584 13.312-19.0976 24.3712-32.6144 20.7872l-39.8336 0.5632a26.2144 26.2144 0 0 1-32.0512-18.176l-75.0592-234.1376H25.6a25.6 25.6 0 0 1-25.6-25.6v-51.2a25.6 25.6 0 0 1 25.6-25.6l252.0064-0.8192c15.3088-0.512 28.3136 1.2288 32.0512 14.9504l39.0144 121.8048L458.5472 19.0464s5.4272-17.4592 23.04-17.4592c17.6128 0 54.6304-0.7168 54.6304-0.7168a24.7808 24.7808 0 0 1 30.3104 17.5104l147.1488 726.9376 108.7488-522.1376c3.584-13.2096 13.9776-24.2688 27.136-20.736l43.776-0.512a25.6 25.6 0 0 1 31.3344 18.0736l74.7008 237.568H1203.2a25.6 25.6 0 0 1 25.6 25.6v51.2a25.6 25.6 0 0 1-25.6 25.6z" p-id="12048"></path></svg>