<?xml version="1.0" standalone="no"?><!DOCTYPE svg PUBLIC "-//W3C//DTD SVG 1.1//EN" "http://www.w3.org/Graphics/SVG/1.1/DTD/svg11.dtd"><svg t="1620650852694" class="icon" viewBox="0 0 1024 1024" version="1.1" xmlns="http://www.w3.org/2000/svg" p-id="1639" xmlns:xlink="http://www.w3.org/1999/xlink" width="200" height="200"><defs><style type="text/css"></style></defs><path d="M339.2 281.6h616.533333c21.333333 0 38.4-17.066667 38.4-38.4s-17.066667-38.4-38.4-38.4H339.2c-21.333333 0-38.4 17.066667-38.4 38.4s17.066667 38.4 38.4 38.4z m616.533333 192H339.2c-21.333333 0-38.4 17.066667-38.4 38.4s17.066667 38.4 38.4 38.4h616.533333c21.333333 0 38.4-17.066667 38.4-38.4s-17.066667-38.4-38.4-38.4z m0 268.8H339.2c-21.333333 0-38.4 17.066667-38.4 38.4s17.066667 38.4 38.4 38.4h616.533333c21.333333 0 38.4-17.066667 38.4-38.4s-17.066667-38.4-38.4-38.4zM29.866667 243.2C29.866667 285.866667 64 320 106.666667 320s76.8-34.133333 76.8-76.8S149.333333 166.4 108.8 166.4s-78.933333 34.133333-78.933333 76.8z m0 268.8c0 42.666667 34.133333 76.8 76.8 76.8S185.6 554.666667 185.6 512 149.333333 435.2 108.8 435.2 29.866667 469.333333 29.866667 512z m0 268.8c0 42.666667 34.133333 76.8 76.8 76.8s76.8-34.133333 76.8-76.8S149.333333 704 108.8 704s-78.933333 34.133333-78.933333 76.8z" p-id="1640"></path></svg>