<?xml version="1.0" standalone="no"?><!DOCTYPE svg PUBLIC "-//W3C//DTD SVG 1.1//EN" "http://www.w3.org/Graphics/SVG/1.1/DTD/svg11.dtd"><svg t="1620651111360" class="icon" viewBox="0 0 1024 1024" version="1.1" xmlns="http://www.w3.org/2000/svg" p-id="9393" xmlns:xlink="http://www.w3.org/1999/xlink" width="200" height="200"><defs><style type="text/css"></style></defs><path d="M512 1016.123077C232.369231 1016.123077 7.876923 791.630769 7.876923 512S232.369231 7.876923 512 7.876923 1016.123077 232.369231 1016.123077 512 791.630769 1016.123077 512 1016.123077zM403.692308 88.615385c-86.646154 21.661538-157.538462 64.984615-216.615385 129.96923 51.2 13.784615 108.307692 27.569231 167.384615 35.446154 13.784615-64.984615 27.569231-116.184615 49.23077-165.415384z m-64.984616 222.523077c-63.015385-7.876923-128-21.661538-192.984615-43.323077-43.323077 64.984615-72.861538 135.876923-72.861539 216.615384h252.061539c0-64.984615 7.876923-116.184615 13.784615-173.292307z m-13.784615 230.4H72.861538c7.876923 78.769231 29.538462 151.630769 72.861539 216.615384 57.107692-21.661538 122.092308-35.446154 194.953846-43.323077-7.876923-59.076923-15.753846-110.276923-15.753846-173.292307z m279.630769-287.507693c-13.784615-64.984615-35.446154-129.969231-64.984615-187.076923h-57.107693c-29.538462 57.107692-51.2 114.215385-64.984615 187.076923 29.538462 0 64.984615 7.876923 92.553846 7.876923s66.953846-1.969231 94.523077-7.876923z m15.753846 63.015385c-35.446154 0-72.861538 7.876923-108.307692 7.876923-35.446154 0-72.861538 0-108.307692-7.876923-7.876923 51.2-13.784615 108.307692-13.784616 165.415384h252.061539c-7.876923-57.107692-15.753846-114.215385-21.661539-165.415384z m214.646154-106.338462c-57.107692-57.107692-129.969231-108.307692-216.615384-129.96923 21.661538 51.2 35.446154 108.307692 51.2 165.415384 59.076923-7.876923 116.184615-21.661538 165.415384-35.446154zM403.692308 706.953846c35.446154 0 72.861538-7.876923 108.307692-7.876923 35.446154 0 72.861538 0 108.307692 7.876923 7.876923-51.2 13.784615-108.307692 13.784616-165.415384H382.030769c7.876923 57.107692 15.753846 114.215385 21.661539 165.415384z m295.384615-224.492308h252.061539c-7.876923-78.769231-29.538462-151.630769-72.861539-216.615384-57.107692 21.661538-122.092308 35.446154-194.953846 43.323077 7.876923 59.076923 15.753846 110.276923 15.753846 173.292307z m-13.784615 230.4c64.984615 7.876923 129.969231 21.661538 194.953846 43.323077 43.323077-64.984615 72.861538-135.876923 72.861538-216.615384H699.076923c0 64.984615-7.876923 116.184615-13.784615 173.292307z m-64.984616 222.523077c86.646154-21.661538 157.538462-64.984615 216.615385-129.96923-51.2-13.784615-108.307692-29.538462-165.415385-35.446154-15.753846 64.984615-29.538462 116.184615-51.2 165.415384zM189.046154 813.292308c57.107692 57.107692 129.969231 108.307692 216.615384 129.96923-21.661538-51.2-35.446154-108.307692-51.2-165.415384-59.076923 7.876923-116.184615 21.661538-165.415384 35.446154z m230.4-49.23077c13.784615 64.984615 35.446154 129.969231 64.984615 187.076924h57.107693c29.538462-57.107692 51.2-114.215385 64.984615-187.076924-29.538462 0-64.984615-7.876923-92.553846-7.876923-31.507692 7.876923-66.953846 7.876923-94.523077 7.876923z" p-id="9394"></path></svg>