<?xml version="1.0" standalone="no"?><!DOCTYPE svg PUBLIC "-//W3C//DTD SVG 1.1//EN" "http://www.w3.org/Graphics/SVG/1.1/DTD/svg11.dtd"><svg t="1620650867747" class="icon" viewBox="0 0 1077 1024" version="1.1" xmlns="http://www.w3.org/2000/svg" p-id="2164" xmlns:xlink="http://www.w3.org/1999/xlink" width="210.3515625" height="200"><defs><style type="text/css"></style></defs><path d="M525.411307 204.790853a34.131126 34.131126 0 0 0-34.131127 34.131126v341.311262a34.131126 34.131126 0 0 0 34.131127 34.131126h341.311261a34.131126 34.131126 0 1 0 0-68.262252h-307.180135V238.239357a34.131126 34.131126 0 0 0-34.131126-33.448504z m40.274728-204.786757a509.236403 509.236403 0 0 0-477.835766 327.658811l-21.161298-48.466199a34.131126 34.131126 0 1 0-62.11865 27.304901l55.975047 125.602544a34.131126 34.131126 0 0 0 45.053086 17.748186l124.919922-55.292425a34.131126 34.131126 0 1 0-27.304901-62.118649l-51.196689 22.526543a442.339395 442.339395 0 1 1-8.874093 292.845063 35.632896 35.632896 0 1 0-68.262252 20.478675A511.966893 511.966893 0 1 0 565.686035 0.004096z" p-id="2165"></path></svg>